<svg width="1212" height="416" xmlns="http://www.w3.org/2000/svg" xmlns:xlink="http://www.w3.org/1999/xlink" overflow="hidden"><defs><clipPath id="clip0"><rect x="14" y="183" width="1212" height="416"/></clipPath></defs><g clip-path="url(#clip0)" transform="translate(-14 -183)"><rect x="0" y="0" width="1058" height="402" stroke="#A0D0A0" stroke-width="13.3333" stroke-miterlimit="8" fill="#FFFFFF" transform="matrix(-1 -8.74228e-08 -8.74228e-08 1 1079.5 190.5)"/><path d="M0 19C-2.41895e-15 8.50659 8.50659-2.41895e-15 19-4.83791e-15 29.4934-9.67581e-15 38 8.50659 38 19 38 29.4934 29.4934 38 19 38 8.50659 38-1.20948e-14 29.4934 0 19Z" fill="#A0D0A0" fill-rule="evenodd" transform="matrix(-1 -8.74228e-08 -8.74228e-08 1 1032 378)"/><path d="M0 104C-1.32406e-14 46.5624 46.5624-1.32406e-14 104-2.64812e-14 161.438-5.29624e-14 208 46.5624 208 104 208 161.438 161.438 208 104 208 46.5624 208-6.62029e-14 161.438 0 104Z" stroke="#A0D0A0" stroke-width="9.33333" stroke-miterlimit="8" fill="none" fill-rule="evenodd" transform="matrix(-1 -8.74228e-08 -8.74228e-08 1 1221.5 287.5)"/><rect x="0" y="0" width="118" height="107" fill="#FFFFFF" transform="matrix(-1 -8.74228e-08 -8.74228e-08 1 1072 416)"/></g></svg>