<svg width="1212" height="416" xmlns="http://www.w3.org/2000/svg" xmlns:xlink="http://www.w3.org/1999/xlink" overflow="hidden"><defs><clipPath id="clip0"><rect x="16" y="183" width="1212" height="416"/></clipPath></defs><g clip-path="url(#clip0)" transform="translate(-16 -183)"><rect x="163.5" y="190.5" width="1058" height="402" stroke="#A0D0A0" stroke-width="13.3333" stroke-miterlimit="8" fill="#FFFFFF"/><path d="M210 397C210 386.507 218.507 378 229 378 239.493 378 248 386.507 248 397 248 407.493 239.493 416 229 416 218.507 416 210 407.493 210 397Z" fill="#A0D0A0" fill-rule="evenodd"/><path d="M21.5001 391.5C21.5001 334.062 68.0624 287.5 125.5 287.5 182.938 287.5 229.5 334.062 229.5 391.5 229.5 448.938 182.938 495.5 125.5 495.5 68.0624 495.5 21.5001 448.938 21.5001 391.5Z" stroke="#A0D0A0" stroke-width="9.33333" stroke-miterlimit="8" fill="none" fill-rule="evenodd"/><rect x="170" y="416" width="118" height="107" fill="#FFFFFF"/></g></svg>